<svg id="visual" viewBox="0 0 900 600" width="900" height="600" xmlns="http://www.w3.org/2000/svg" xmlns:xlink="http://www.w3.org/1999/xlink" version="1.1"><g stroke-width="1" stroke-linejoin="bevel"><path d="M478 384L401 439L483 468Z" fill="#253737" stroke="#253737"></path><path d="M401 439L420 476L483 468Z" fill="#213031" stroke="#213031"></path><path d="M478 384L363 328L401 439Z" fill="#191f20" stroke="#191f20"></path><path d="M483 468L588 411L478 384Z" fill="#1d2528" stroke="#1d2528"></path><path d="M478 384L536 278L363 328Z" fill="#1d2528" stroke="#1d2528"></path><path d="M588 411L536 278L478 384Z" fill="#191f20" stroke="#191f20"></path><path d="M382 600L477 600L420 476Z" fill="#253737" stroke="#253737"></path><path d="M420 476L477 600L483 468Z" fill="#161819" stroke="#161819"></path><path d="M483 468L595 535L588 411Z" fill="#181b1d" stroke="#181b1d"></path><path d="M272 418L295 506L401 439Z" fill="#1d2528" stroke="#1d2528"></path><path d="M401 439L295 506L420 476Z" fill="#273b39" stroke="#273b39"></path><path d="M363 328L272 418L401 439Z" fill="#233434" stroke="#233434"></path><path d="M477 600L595 535L483 468Z" fill="#191f20" stroke="#191f20"></path><path d="M295 506L382 600L420 476Z" fill="#273b39" stroke="#273b39"></path><path d="M536 278L460 206L363 328Z" fill="#1b2224" stroke="#1b2224"></path><path d="M363 328L266 304L272 418Z" fill="#1d2528" stroke="#1d2528"></path><path d="M271 189L266 304L363 328Z" fill="#202d2e" stroke="#202d2e"></path><path d="M588 411L627 286L536 278Z" fill="#1d2528" stroke="#1d2528"></path><path d="M536 278L516 135L460 206Z" fill="#1e292b" stroke="#1e292b"></path><path d="M681 416L627 286L588 411Z" fill="#273b39" stroke="#273b39"></path><path d="M272 418L230 475L295 506Z" fill="#181b1d" stroke="#181b1d"></path><path d="M295 506L290 600L382 600Z" fill="#161819" stroke="#161819"></path><path d="M181 383L230 475L272 418Z" fill="#181b1d" stroke="#181b1d"></path><path d="M679 501L681 416L588 411Z" fill="#1e292b" stroke="#1e292b"></path><path d="M188 600L290 600L295 506Z" fill="#273b39" stroke="#273b39"></path><path d="M639 600L679 501L595 535Z" fill="#1d2528" stroke="#1d2528"></path><path d="M595 535L679 501L588 411Z" fill="#253737" stroke="#253737"></path><path d="M460 206L402 187L363 328Z" fill="#1d2528" stroke="#1d2528"></path><path d="M477 600L639 600L595 535Z" fill="#253737" stroke="#253737"></path><path d="M663 268L630 239L627 286Z" fill="#1b2224" stroke="#1b2224"></path><path d="M627 286L630 239L536 278Z" fill="#253737" stroke="#253737"></path><path d="M460 206L516 135L402 187Z" fill="#161819" stroke="#161819"></path><path d="M681 416L663 268L627 286Z" fill="#253737" stroke="#253737"></path><path d="M266 304L181 383L272 418Z" fill="#253737" stroke="#253737"></path><path d="M230 475L188 600L295 506Z" fill="#1b2224" stroke="#1b2224"></path><path d="M639 600L666 600L679 501Z" fill="#253737" stroke="#253737"></path><path d="M402 187L271 189L363 328Z" fill="#202d2e" stroke="#202d2e"></path><path d="M266 304L162 289L181 383Z" fill="#1d2528" stroke="#1d2528"></path><path d="M589 115L516 135L630 239Z" fill="#253737" stroke="#253737"></path><path d="M630 239L516 135L536 278Z" fill="#1d2528" stroke="#1d2528"></path><path d="M402 187L322 118L271 189Z" fill="#1d2528" stroke="#1d2528"></path><path d="M816 320L696 238L663 268Z" fill="#202d2e" stroke="#202d2e"></path><path d="M663 268L696 238L630 239Z" fill="#253737" stroke="#253737"></path><path d="M816 320L663 268L681 416Z" fill="#1d2528" stroke="#1d2528"></path><path d="M516 135L383 124L402 187Z" fill="#273b39" stroke="#273b39"></path><path d="M130 527L188 600L230 475Z" fill="#202d2e" stroke="#202d2e"></path><path d="M232 185L162 289L266 304Z" fill="#233434" stroke="#233434"></path><path d="M181 383L128 404L230 475Z" fill="#161819" stroke="#161819"></path><path d="M131 318L128 404L181 383Z" fill="#1d2528" stroke="#1d2528"></path><path d="M807 513L776 430L679 501Z" fill="#202d2e" stroke="#202d2e"></path><path d="M679 501L776 430L681 416Z" fill="#213031" stroke="#213031"></path><path d="M322 118L232 185L271 189Z" fill="#181b1d" stroke="#181b1d"></path><path d="M271 189L232 185L266 304Z" fill="#161819" stroke="#161819"></path><path d="M412 0L322 118L383 124Z" fill="#233434" stroke="#233434"></path><path d="M383 124L322 118L402 187Z" fill="#273b39" stroke="#273b39"></path><path d="M128 404L130 527L230 475Z" fill="#191f20" stroke="#191f20"></path><path d="M162 289L131 318L181 383Z" fill="#1e292b" stroke="#1e292b"></path><path d="M64 181L131 318L162 289Z" fill="#1e292b" stroke="#1e292b"></path><path d="M696 238L589 115L630 239Z" fill="#273b39" stroke="#273b39"></path><path d="M516 135L412 0L383 124Z" fill="#233434" stroke="#233434"></path><path d="M666 600L762 600L679 501Z" fill="#1d2528" stroke="#1d2528"></path><path d="M762 600L807 513L679 501Z" fill="#213031" stroke="#213031"></path><path d="M776 430L816 320L681 416Z" fill="#1b2224" stroke="#1b2224"></path><path d="M696 238L702 70L589 115Z" fill="#213031" stroke="#213031"></path><path d="M900 378L816 320L776 430Z" fill="#191f20" stroke="#191f20"></path><path d="M0 533L89 600L130 527Z" fill="#273b39" stroke="#273b39"></path><path d="M130 527L89 600L188 600Z" fill="#1b2224" stroke="#1b2224"></path><path d="M0 533L130 527L128 404Z" fill="#1b2224" stroke="#1b2224"></path><path d="M322 118L175 118L232 185Z" fill="#202d2e" stroke="#202d2e"></path><path d="M232 185L64 181L162 289Z" fill="#253737" stroke="#253737"></path><path d="M289 0L175 118L322 118Z" fill="#191f20" stroke="#191f20"></path><path d="M525 0L412 0L516 135Z" fill="#213031" stroke="#213031"></path><path d="M603 0L525 0L589 115Z" fill="#213031" stroke="#213031"></path><path d="M589 115L525 0L516 135Z" fill="#233434" stroke="#233434"></path><path d="M900 324L833 221L816 320Z" fill="#181b1d" stroke="#181b1d"></path><path d="M816 320L833 221L696 238Z" fill="#253737" stroke="#253737"></path><path d="M794 69L702 70L696 238Z" fill="#181b1d" stroke="#181b1d"></path><path d="M900 481L776 430L807 513Z" fill="#273b39" stroke="#273b39"></path><path d="M900 481L900 378L776 430Z" fill="#1b2224" stroke="#1b2224"></path><path d="M900 600L900 481L807 513Z" fill="#1e292b" stroke="#1e292b"></path><path d="M702 70L603 0L589 115Z" fill="#253737" stroke="#253737"></path><path d="M0 334L0 377L131 318Z" fill="#253737" stroke="#253737"></path><path d="M131 318L0 377L128 404Z" fill="#161819" stroke="#161819"></path><path d="M412 0L289 0L322 118Z" fill="#213031" stroke="#213031"></path><path d="M175 118L64 181L232 185Z" fill="#1b2224" stroke="#1b2224"></path><path d="M98 94L64 181L175 118Z" fill="#1e292b" stroke="#1e292b"></path><path d="M900 378L900 324L816 320Z" fill="#1d2528" stroke="#1d2528"></path><path d="M64 181L0 334L131 318Z" fill="#273b39" stroke="#273b39"></path><path d="M0 377L0 533L128 404Z" fill="#1e292b" stroke="#1e292b"></path><path d="M762 600L900 600L807 513Z" fill="#233434" stroke="#233434"></path><path d="M0 533L0 600L89 600Z" fill="#191f20" stroke="#191f20"></path><path d="M171 0L98 94L175 118Z" fill="#253737" stroke="#253737"></path><path d="M64 181L0 162L0 334Z" fill="#233434" stroke="#233434"></path><path d="M833 221L794 69L696 238Z" fill="#1b2224" stroke="#1b2224"></path><path d="M702 70L716 0L603 0Z" fill="#191f20" stroke="#191f20"></path><path d="M900 96L794 69L833 221Z" fill="#1b2224" stroke="#1b2224"></path><path d="M794 69L716 0L702 70Z" fill="#181b1d" stroke="#181b1d"></path><path d="M900 324L900 195L833 221Z" fill="#213031" stroke="#213031"></path><path d="M289 0L171 0L175 118Z" fill="#1e292b" stroke="#1e292b"></path><path d="M0 94L64 181L98 94Z" fill="#253737" stroke="#253737"></path><path d="M0 94L0 162L64 181Z" fill="#273b39" stroke="#273b39"></path><path d="M900 0L786 0L794 69Z" fill="#1e292b" stroke="#1e292b"></path><path d="M794 69L786 0L716 0Z" fill="#213031" stroke="#213031"></path><path d="M171 0L100 0L98 94Z" fill="#181b1d" stroke="#181b1d"></path><path d="M900 195L900 96L833 221Z" fill="#161819" stroke="#161819"></path><path d="M0 0L0 94L98 94Z" fill="#191f20" stroke="#191f20"></path><path d="M900 96L900 0L794 69Z" fill="#233434" stroke="#233434"></path><path d="M100 0L0 0L98 94Z" fill="#202d2e" stroke="#202d2e"></path></g></svg>