<svg id="visual" viewBox="0 0 900 600" width="900" height="600" xmlns="http://www.w3.org/2000/svg" xmlns:xlink="http://www.w3.org/1999/xlink" version="1.1"><g stroke-width="1" stroke-linejoin="bevel"><path d="M441 299L462 291L418 202Z" fill="#272727" stroke="#272727"></path><path d="M462 291L461 189L418 202Z" fill="#222222" stroke="#222222"></path><path d="M418 202L311 269L441 299Z" fill="#292929" stroke="#292929"></path><path d="M461 189L427 118L418 202Z" fill="#1c1c1c" stroke="#1c1c1c"></path><path d="M418 202L295 175L311 269Z" fill="#151516" stroke="#151516"></path><path d="M311 269L374 367L441 299Z" fill="#292929" stroke="#292929"></path><path d="M441 299L527 385L462 291Z" fill="#222222" stroke="#222222"></path><path d="M427 118L295 175L418 202Z" fill="#1e1e1e" stroke="#1e1e1e"></path><path d="M374 367L527 385L441 299Z" fill="#181818" stroke="#181818"></path><path d="M462 291L591 192L461 189Z" fill="#1e1e1e" stroke="#1e1e1e"></path><path d="M584 342L591 192L462 291Z" fill="#131314" stroke="#131314"></path><path d="M461 189L506 71L427 118Z" fill="#1e1e1e" stroke="#1e1e1e"></path><path d="M527 385L584 342L462 291Z" fill="#222222" stroke="#222222"></path><path d="M559 97L506 71L461 189Z" fill="#131314" stroke="#131314"></path><path d="M254 71L190 198L295 175Z" fill="#202020" stroke="#202020"></path><path d="M591 192L559 97L461 189Z" fill="#272727" stroke="#272727"></path><path d="M527 385L593 370L584 342Z" fill="#272727" stroke="#272727"></path><path d="M584 342L678 268L591 192Z" fill="#252525" stroke="#252525"></path><path d="M234 330L263 373L311 269Z" fill="#222222" stroke="#222222"></path><path d="M311 269L263 373L374 367Z" fill="#252525" stroke="#252525"></path><path d="M374 367L434 490L527 385Z" fill="#292929" stroke="#292929"></path><path d="M190 198L234 330L311 269Z" fill="#222222" stroke="#222222"></path><path d="M313 524L434 490L374 367Z" fill="#1c1c1c" stroke="#1c1c1c"></path><path d="M527 385L538 468L593 370Z" fill="#202020" stroke="#202020"></path><path d="M434 490L538 468L527 385Z" fill="#252525" stroke="#252525"></path><path d="M712 362L584 342L593 370Z" fill="#252525" stroke="#252525"></path><path d="M712 362L678 268L584 342Z" fill="#151516" stroke="#151516"></path><path d="M591 192L669 162L559 97Z" fill="#1a1a1a" stroke="#1a1a1a"></path><path d="M254 71L295 175L427 118Z" fill="#131314" stroke="#131314"></path><path d="M295 175L190 198L311 269Z" fill="#202020" stroke="#202020"></path><path d="M678 268L669 162L591 192Z" fill="#292929" stroke="#292929"></path><path d="M568 0L459 0L506 71Z" fill="#252525" stroke="#252525"></path><path d="M506 71L459 0L427 118Z" fill="#1e1e1e" stroke="#1e1e1e"></path><path d="M568 0L506 71L559 97Z" fill="#1e1e1e" stroke="#1e1e1e"></path><path d="M459 0L407 0L427 118Z" fill="#151516" stroke="#151516"></path><path d="M407 0L254 71L427 118Z" fill="#151516" stroke="#151516"></path><path d="M234 330L218 402L263 373Z" fill="#131314" stroke="#131314"></path><path d="M263 373L241 460L374 367Z" fill="#131314" stroke="#131314"></path><path d="M139 377L218 402L234 330Z" fill="#1a1a1a" stroke="#1a1a1a"></path><path d="M686 0L568 0L559 97Z" fill="#181818" stroke="#181818"></path><path d="M218 402L241 460L263 373Z" fill="#131314" stroke="#131314"></path><path d="M407 0L274 0L254 71Z" fill="#1e1e1e" stroke="#1e1e1e"></path><path d="M254 71L172 76L190 198Z" fill="#222222" stroke="#222222"></path><path d="M662 524L712 362L593 370Z" fill="#222222" stroke="#222222"></path><path d="M786 169L730 92L669 162Z" fill="#1a1a1a" stroke="#1a1a1a"></path><path d="M241 460L313 524L374 367Z" fill="#181818" stroke="#181818"></path><path d="M583 600L634 533L538 468Z" fill="#131314" stroke="#131314"></path><path d="M226 0L172 76L254 71Z" fill="#181818" stroke="#181818"></path><path d="M111 298L139 377L234 330Z" fill="#1e1e1e" stroke="#1e1e1e"></path><path d="M111 298L234 330L190 198Z" fill="#272727" stroke="#272727"></path><path d="M218 402L72 470L241 460Z" fill="#252525" stroke="#252525"></path><path d="M169 600L301 600L313 524Z" fill="#202020" stroke="#202020"></path><path d="M274 0L226 0L254 71Z" fill="#131314" stroke="#131314"></path><path d="M55 162L111 298L190 198Z" fill="#202020" stroke="#202020"></path><path d="M786 169L669 162L678 268Z" fill="#1e1e1e" stroke="#1e1e1e"></path><path d="M669 162L730 92L559 97Z" fill="#1e1e1e" stroke="#1e1e1e"></path><path d="M712 362L764 314L678 268Z" fill="#1e1e1e" stroke="#1e1e1e"></path><path d="M538 468L634 533L593 370Z" fill="#222222" stroke="#222222"></path><path d="M712 362L805 375L764 314Z" fill="#131314" stroke="#131314"></path><path d="M536 600L538 468L434 490Z" fill="#222222" stroke="#222222"></path><path d="M313 524L418 600L434 490Z" fill="#1a1a1a" stroke="#1a1a1a"></path><path d="M730 92L686 0L559 97Z" fill="#181818" stroke="#181818"></path><path d="M634 533L662 524L593 370Z" fill="#222222" stroke="#222222"></path><path d="M764 314L786 169L678 268Z" fill="#1a1a1a" stroke="#1a1a1a"></path><path d="M730 92L807 0L686 0Z" fill="#252525" stroke="#252525"></path><path d="M418 600L536 600L434 490Z" fill="#202020" stroke="#202020"></path><path d="M634 533L699 600L662 524Z" fill="#272727" stroke="#272727"></path><path d="M169 600L313 524L241 460Z" fill="#181818" stroke="#181818"></path><path d="M313 524L301 600L418 600Z" fill="#1a1a1a" stroke="#1a1a1a"></path><path d="M536 600L583 600L538 468Z" fill="#1e1e1e" stroke="#1e1e1e"></path><path d="M94 0L73 106L172 76Z" fill="#1e1e1e" stroke="#1e1e1e"></path><path d="M172 76L73 106L190 198Z" fill="#272727" stroke="#272727"></path><path d="M73 106L55 162L190 198Z" fill="#252525" stroke="#252525"></path><path d="M0 422L72 470L139 377Z" fill="#252525" stroke="#252525"></path><path d="M801 496L805 375L712 362Z" fill="#181818" stroke="#181818"></path><path d="M764 314L900 226L786 169Z" fill="#292929" stroke="#292929"></path><path d="M900 138L829 107L786 169Z" fill="#131314" stroke="#131314"></path><path d="M786 169L829 107L730 92Z" fill="#1e1e1e" stroke="#1e1e1e"></path><path d="M226 0L94 0L172 76Z" fill="#272727" stroke="#272727"></path><path d="M0 170L0 260L55 162Z" fill="#131314" stroke="#131314"></path><path d="M0 422L139 377L111 298Z" fill="#1c1c1c" stroke="#1c1c1c"></path><path d="M139 377L72 470L218 402Z" fill="#131314" stroke="#131314"></path><path d="M55 162L0 260L111 298Z" fill="#181818" stroke="#181818"></path><path d="M0 170L55 162L0 79Z" fill="#151516" stroke="#151516"></path><path d="M662 524L801 496L712 362Z" fill="#222222" stroke="#222222"></path><path d="M583 600L699 600L634 533Z" fill="#181818" stroke="#181818"></path><path d="M72 470L169 600L241 460Z" fill="#1e1e1e" stroke="#1e1e1e"></path><path d="M0 79L55 162L73 106Z" fill="#202020" stroke="#202020"></path><path d="M764 600L801 496L662 524Z" fill="#1a1a1a" stroke="#1a1a1a"></path><path d="M900 333L900 226L764 314Z" fill="#292929" stroke="#292929"></path><path d="M829 107L807 0L730 92Z" fill="#222222" stroke="#222222"></path><path d="M72 470L140 600L169 600Z" fill="#222222" stroke="#222222"></path><path d="M94 0L0 79L73 106Z" fill="#1e1e1e" stroke="#1e1e1e"></path><path d="M900 333L764 314L805 375Z" fill="#292929" stroke="#292929"></path><path d="M829 107L900 0L807 0Z" fill="#1a1a1a" stroke="#1a1a1a"></path><path d="M0 260L0 422L111 298Z" fill="#202020" stroke="#202020"></path><path d="M72 470L0 600L140 600Z" fill="#1e1e1e" stroke="#1e1e1e"></path><path d="M900 431L900 333L805 375Z" fill="#292929" stroke="#292929"></path><path d="M900 226L900 138L786 169Z" fill="#131314" stroke="#131314"></path><path d="M699 600L764 600L662 524Z" fill="#181818" stroke="#181818"></path><path d="M801 496L900 431L805 375Z" fill="#131314" stroke="#131314"></path><path d="M900 470L900 431L801 496Z" fill="#202020" stroke="#202020"></path><path d="M94 0L0 0L0 79Z" fill="#222222" stroke="#222222"></path><path d="M0 422L0 507L72 470Z" fill="#1c1c1c" stroke="#1c1c1c"></path><path d="M900 600L900 470L801 496Z" fill="#222222" stroke="#222222"></path><path d="M900 138L900 0L829 107Z" fill="#222222" stroke="#222222"></path><path d="M0 507L0 600L72 470Z" fill="#151516" stroke="#151516"></path><path d="M764 600L900 600L801 496Z" fill="#1a1a1a" stroke="#1a1a1a"></path></g></svg>