<svg id="visual" viewBox="0 0 960 540" width="960" height="540" xmlns="http://www.w3.org/2000/svg" xmlns:xlink="http://www.w3.org/1999/xlink" version="1.1"><path d="M0 195L20 184.3C40 173.7 80 152.3 120 141.7C160 131 200 131 240 132.7C280 134.3 320 137.7 360 138.5C400 139.3 440 137.7 480 139.5C520 141.3 560 146.7 600 144.8C640 143 680 134 720 136.7C760 139.3 800 153.7 840 161.8C880 170 920 172 940 173L960 174L960 0L940 0C920 0 880 0 840 0C800 0 760 0 720 0C680 0 640 0 600 0C560 0 520 0 480 0C440 0 400 0 360 0C320 0 280 0 240 0C200 0 160 0 120 0C80 0 40 0 20 0L0 0Z" fill="#131314"></path><path d="M0 255L20 241.5C40 228 80 201 120 187.5C160 174 200 174 240 180.3C280 186.7 320 199.3 360 203.8C400 208.3 440 204.7 480 202.8C520 201 560 201 600 199.2C640 197.3 680 193.7 720 197.2C760 200.7 800 211.3 840 215C880 218.7 920 215.3 940 213.7L960 212L960 172L940 171C920 170 880 168 840 159.8C800 151.7 760 137.3 720 134.7C680 132 640 141 600 142.8C560 144.7 520 139.3 480 137.5C440 135.7 400 137.3 360 136.5C320 135.7 280 132.3 240 130.7C200 129 160 129 120 139.7C80 150.3 40 171.7 20 182.3L0 193Z" fill="#181818"></path><path d="M0 298L20 282.7C40 267.3 80 236.7 120 225C160 213.3 200 220.7 240 235.2C280 249.7 320 271.3 360 276.7C400 282 440 271 480 266.5C520 262 560 264 600 257.7C640 251.3 680 236.7 720 247.3C760 258 800 294 840 300.3C880 306.7 920 283.3 940 271.7L960 260L960 210L940 211.7C920 213.3 880 216.7 840 213C800 209.3 760 198.7 720 195.2C680 191.7 640 195.3 600 197.2C560 199 520 199 480 200.8C440 202.7 400 206.3 360 201.8C320 197.3 280 184.7 240 178.3C200 172 160 172 120 185.5C80 199 40 226 20 239.5L0 253Z" fill="#1c1c1c"></path><path d="M0 341L20 333C40 325 80 309 120 299.2C160 289.3 200 285.7 240 300.8C280 316 320 350 360 356.3C400 362.7 440 341.3 480 334.2C520 327 560 334 600 325.8C640 317.7 680 294.3 720 301.5C760 308.7 800 346.3 840 351.7C880 357 920 330 940 316.5L960 303L960 258L940 269.7C920 281.3 880 304.7 840 298.3C800 292 760 256 720 245.3C680 234.7 640 249.3 600 255.7C560 262 520 260 480 264.5C440 269 400 280 360 274.7C320 269.3 280 247.7 240 233.2C200 218.7 160 211.3 120 223C80 234.7 40 265.3 20 280.7L0 296Z" fill="#202020"></path><path d="M0 471L20 470C40 469 80 467 120 468.8C160 470.7 200 476.3 240 476.3C280 476.3 320 470.7 360 467.8C400 465 440 465 480 465C520 465 560 465 600 470.5C640 476 680 487 720 494.3C760 501.7 800 505.3 840 499.8C880 494.3 920 479.7 940 472.3L960 465L960 301L940 314.5C920 328 880 355 840 349.7C800 344.3 760 306.7 720 299.5C680 292.3 640 315.7 600 323.8C560 332 520 325 480 332.2C440 339.3 400 360.7 360 354.3C320 348 280 314 240 298.8C200 283.7 160 287.3 120 297.2C80 307 40 323 20 331L0 339Z" fill="#252525"></path><path d="M0 541L20 541C40 541 80 541 120 541C160 541 200 541 240 541C280 541 320 541 360 541C400 541 440 541 480 541C520 541 560 541 600 541C640 541 680 541 720 541C760 541 800 541 840 541C880 541 920 541 940 541L960 541L960 463L940 470.3C920 477.7 880 492.3 840 497.8C800 503.3 760 499.7 720 492.3C680 485 640 474 600 468.5C560 463 520 463 480 463C440 463 400 463 360 465.8C320 468.7 280 474.3 240 474.3C200 474.3 160 468.7 120 466.8C80 465 40 467 20 468L0 469Z" fill="#292929"></path></svg>