<svg id="visual" viewBox="0 0 960 540" width="960" height="540" xmlns="http://www.w3.org/2000/svg" xmlns:xlink="http://www.w3.org/1999/xlink" version="1.1"><path d="M738 540L834 540L834 491L825 491L825 442L729 442L729 393L709 393L709 344L815 344L815 295L853 295L853 245L815 245L815 196L805 196L805 147L777 147L777 98L777 98L777 49L815 49L815 0L960 0L960 49L960 49L960 98L960 98L960 147L960 147L960 196L960 196L960 245L960 245L960 295L960 295L960 344L960 344L960 393L960 393L960 442L960 442L960 491L960 491L960 540L960 540Z" fill="#131314"></path><path d="M604 540L690 540L690 491L738 491L738 442L661 442L661 393L633 393L633 344L719 344L719 295L777 295L777 245L690 245L690 196L700 196L700 147L671 147L671 98L700 98L700 49L671 49L671 0L816 0L816 49L778 49L778 98L778 98L778 147L806 147L806 196L816 196L816 245L854 245L854 295L816 295L816 344L710 344L710 393L730 393L730 442L826 442L826 491L835 491L835 540L739 540Z" fill="#191919"></path><path d="M316 540L450 540L450 491L421 491L421 442L393 442L393 393L364 393L364 344L537 344L537 295L402 295L402 245L421 245L421 196L373 196L373 147L393 147L393 98L479 98L479 49L508 49L508 0L672 0L672 49L701 49L701 98L672 98L672 147L701 147L701 196L691 196L691 245L778 245L778 295L720 295L720 344L634 344L634 393L662 393L662 442L739 442L739 491L691 491L691 540L605 540Z" fill="#1e1e1e"></path><path d="M133 540L114 540L114 491L95 491L95 442L191 442L191 393L133 393L133 344L162 344L162 295L172 295L172 245L105 245L105 196L114 196L114 147L181 147L181 98L95 98L95 49L153 49L153 0L509 0L509 49L480 49L480 98L394 98L394 147L374 147L374 196L422 196L422 245L403 245L403 295L538 295L538 344L365 344L365 393L394 393L394 442L422 442L422 491L451 491L451 540L317 540Z" fill="#232323"></path><path d="M0 540L0 540L0 491L0 491L0 442L0 442L0 393L0 393L0 344L0 344L0 295L0 295L0 245L0 245L0 196L0 196L0 147L0 147L0 98L0 98L0 49L0 49L0 0L154 0L154 49L96 49L96 98L182 98L182 147L115 147L115 196L106 196L106 245L173 245L173 295L163 295L163 344L134 344L134 393L192 393L192 442L96 442L96 491L115 491L115 540L134 540Z" fill="#292929"></path></svg>