<svg id="visual" viewBox="0 0 960 540" width="960" height="540" xmlns="http://www.w3.org/2000/svg" xmlns:xlink="http://www.w3.org/1999/xlink" version="1.1"><rect x="0" y="0" width="960" height="540" fill="#292929"></rect><path d="M0 177L14.5 177.5C29 178 58 179 87.2 180.8C116.3 182.7 145.7 185.3 174.8 201.2C204 217 233 246 262 252.5C291 259 320 243 349 240.7C378 238.3 407 249.7 436.2 238.5C465.3 227.3 494.7 193.7 523.8 184.5C553 175.3 582 190.7 611 196C640 201.3 669 196.7 698 205.7C727 214.7 756 237.3 785.2 241.8C814.3 246.3 843.7 232.7 872.8 226.3C902 220 931 221 945.5 221.5L960 222L960 0L945.5 0C931 0 902 0 872.8 0C843.7 0 814.3 0 785.2 0C756 0 727 0 698 0C669 0 640 0 611 0C582 0 553 0 523.8 0C494.7 0 465.3 0 436.2 0C407 0 378 0 349 0C320 0 291 0 262 0C233 0 204 0 174.8 0C145.7 0 116.3 0 87.2 0C58 0 29 0 14.5 0L0 0Z" fill="#131314" stroke-linecap="round" stroke-linejoin="miter"></path></svg>